<svg width="311" height="72" viewBox="0 0 311 72" fill="none" xmlns="http://www.w3.org/2000/svg">
<path d="M1.03191 32.1101C2.88877 24.6545 7.18922 18.0336 13.2485 13.3021C19.3078 8.57045 26.7776 6 34.4683 6C42.1591 6 49.6288 8.57045 55.6882 13.3021C61.7475 18.0336 66.0478 24.6545 67.9047 32.1101H64.8845C59.7896 32.0352 54.7992 33.5563 50.6139 36.4598C50.3723 36.6346 50.1201 36.7942 49.8589 36.9375H49.5065C49.2453 36.7942 48.9931 36.6346 48.7515 36.4598C44.5292 33.6235 39.5564 32.1086 34.4683 32.1086C29.3802 32.1086 24.4074 33.6235 20.1852 36.4598C19.9436 36.6346 19.6914 36.7942 19.4301 36.9375H19.0778C18.8165 36.7942 18.5643 36.6346 18.3227 36.4598C14.1374 33.5563 9.147 32.0352 4.05213 32.1101H1.03191ZM59.4481 47.8747C60.9985 46.6686 62.9201 46.0375 64.8845 46.0895H68.9366V38.0187H64.8845C61.4243 37.9769 58.0434 39.0528 55.2449 41.0861C53.6702 42.2459 51.7651 42.8717 49.8085 42.8717C47.8519 42.8717 45.9469 42.2459 44.3721 41.0861C41.5027 39.0908 38.0903 38.0209 34.5942 38.0209C31.098 38.0209 27.6856 39.0908 24.8162 41.0861C23.2414 42.2459 21.3364 42.8717 19.3798 42.8717C17.4232 42.8717 15.5182 42.2459 13.9434 41.0861C11.1104 39.0267 7.68093 37.9495 4.17798 38.0187H0V46.0895H4.05213C6.01656 46.0375 7.93816 46.6686 9.48854 47.8747C12.3527 49.8715 15.7613 50.9421 19.2539 50.9421C22.7466 50.9421 26.1551 49.8715 29.0193 47.8747C30.5717 46.6723 32.4918 46.0418 34.4557 46.0895C36.4209 46.0332 38.3438 46.6648 39.8921 47.8747C42.7616 49.8703 46.174 50.9398 49.6701 50.9398C53.1663 50.9398 56.5786 49.8703 59.4481 47.8747ZM59.4481 62.3067C60.9985 61.1006 62.9201 60.4695 64.8845 60.5215H68.9366V52.4507H64.8845C61.4243 52.4089 58.0434 53.4848 55.2449 55.5181C53.6702 56.6779 51.7651 57.3037 49.8085 57.3037C47.8519 57.3037 45.9469 56.6779 44.3721 55.5181C41.5027 53.5228 38.0903 52.4532 34.5942 52.4532C31.098 52.4532 27.6856 53.5228 24.8162 55.5181C23.2414 56.6779 21.3364 57.3037 19.3798 57.3037C17.4232 57.3037 15.5182 56.6779 13.9434 55.5181C11.1104 53.4589 7.68093 52.3815 4.17798 52.4507H0V60.5215H4.05213C6.01656 60.4695 7.93816 61.1006 9.48854 62.3067C12.3527 64.3035 15.7613 65.3741 19.2539 65.3741C22.7466 65.3741 26.1551 64.3035 29.0193 62.3067C30.5717 61.1043 32.4918 60.4738 34.4557 60.5215C36.4209 60.4652 38.3438 61.0968 39.8921 62.3067C42.7616 64.3023 46.174 65.3718 49.6701 65.3718C53.1663 65.3718 56.5786 64.3023 59.4481 62.3067Z" fill="#FF7629"/>
<path d="M24.733 28.4096H43.8635V31.0915C43.8635 31.8028 43.5755 32.485 43.063 32.9879C42.5505 33.4909 41.8553 33.7734 41.1305 33.7734H27.4659C26.7411 33.7734 26.046 33.4909 25.5335 32.9879C25.0209 32.485 24.733 31.8028 24.733 31.0915V28.4096Z" stroke="white" stroke-width="2.67978" stroke-linecap="round" stroke-linejoin="round"/>
<path d="M30.1988 15H38.3976C39.8472 15 41.2375 15.5651 42.2625 16.571C43.2876 17.577 43.8635 18.9413 43.8635 20.3638V23.0458H24.733V20.3638C24.733 18.9413 25.3089 17.577 26.3339 16.571C27.359 15.5651 28.7492 15 30.1988 15Z" stroke="white" stroke-width="2.67978" stroke-linecap="round" stroke-linejoin="round"/>
<path d="M43.8634 23.0457H24.7329C23.2236 23.0457 22 24.2465 22 25.7277C22 27.2089 23.2236 28.4096 24.7329 28.4096H43.8634C45.3727 28.4096 46.5963 27.2089 46.5963 25.7277C46.5963 24.2465 45.3727 23.0457 43.8634 23.0457Z" stroke="white" stroke-width="2.67978" stroke-linecap="round" stroke-linejoin="round"/>
<path d="M96.0577 39.6753C94.8182 39.4982 94.1984 39.2105 94.1984 38.812C94.1984 38.5243 94.4087 38.1923 94.8292 37.8159C95.2498 37.4396 95.6704 37.0523 96.0909 36.6538C96.0909 35.3257 95.8917 33.8426 95.4933 32.2046C95.0948 30.5445 94.8071 29.2606 94.63 28.3531C94.4529 27.4455 94.3644 26.6154 94.3644 25.8628C94.3644 25.1102 94.4751 24.6343 94.6964 24.4351C94.9399 24.2359 95.283 24.1363 95.7257 24.1363C96.1684 24.1363 96.4562 24.2027 96.589 24.3355C96.7218 24.4462 96.8103 24.59 96.8546 24.7671C96.8989 24.9442 96.921 25.1324 96.921 25.3316C96.9432 25.5308 96.9874 25.7189 97.0538 25.896C97.1645 26.3166 97.5076 26.5269 98.0831 26.5269C99.5662 26.5048 101.049 26.383 102.532 26.1617C104.015 25.9182 105.487 25.6747 106.948 25.4312C109.87 24.9442 111.918 24.7007 113.091 24.7007C114.286 24.7007 115.227 24.7339 115.913 24.8003C115.935 25.2209 115.98 25.5861 116.046 25.896C116.112 26.2059 116.146 26.4605 116.146 26.6597C116.146 27.036 115.78 27.1688 115.05 27.0581C103.473 27.4787 97.6847 28.342 97.6847 29.648C97.6847 31.0868 97.7843 32.3264 97.9835 33.3667C98.1827 34.385 98.3266 35.0269 98.4152 35.2925C98.5258 35.5581 98.6476 35.6909 98.7804 35.6909C100.042 35.6909 101.315 35.5803 102.599 35.3589C103.905 35.1376 105.2 34.9051 106.484 34.6617C107.79 34.396 109.095 34.1525 110.401 33.9312C111.707 33.7098 112.991 33.5992 114.253 33.5992C114.275 33.5992 114.286 33.6877 114.286 33.8648C114.286 34.0197 114.275 34.1968 114.253 34.396C114.187 34.9273 114.187 35.1929 114.253 35.1929C113.301 35.7242 111.575 36.1558 109.073 36.4878C107.989 36.6428 106.882 36.7867 105.753 36.9195C104.624 37.0523 103.584 37.1962 102.632 37.3511C100.441 37.661 99.1678 38.0705 98.8136 38.5796L98.4484 45.0874C98.2049 45.3309 97.9282 45.4527 97.6183 45.4527L96.3898 45.3531C96.2791 45.3531 96.1684 45.3531 96.0577 45.3531V39.6753ZM118.685 39.6089C118.154 38.4136 117.888 37.008 117.888 35.3921C117.888 33.7762 118.143 32.3485 118.652 31.1089C119.183 29.8472 119.902 28.7626 120.81 27.855C122.736 25.9735 125.149 25.0327 128.048 25.0327C131.081 25.0327 133.582 25.73 135.552 27.1245C137.766 28.7183 138.873 30.9982 138.873 33.9644C138.873 37.6389 138.02 40.3505 136.316 42.0992C134.634 43.8478 131.999 44.7222 128.414 44.7222C123.433 44.7222 120.19 43.0178 118.685 39.6089ZM120.611 34.7281C120.611 39.952 123.245 42.564 128.513 42.564C131.103 42.564 133.206 41.7893 134.822 40.2398C136.438 38.7124 137.246 36.7092 137.246 34.23C137.246 31.9058 136.283 30.135 134.357 28.9175C132.719 27.855 130.649 27.3238 128.148 27.3238C126.156 27.3238 124.396 28.0432 122.869 29.482C121.363 30.9208 120.611 32.6695 120.611 34.7281ZM142.142 39.6089C141.611 38.4136 141.345 37.008 141.345 35.3921C141.345 33.7762 141.6 32.3485 142.109 31.1089C142.64 29.8472 143.36 28.7626 144.267 27.855C146.193 25.9735 148.606 25.0327 151.506 25.0327C154.538 25.0327 157.039 25.73 159.01 27.1245C161.223 28.7183 162.33 30.9982 162.33 33.9644C162.33 37.6389 161.478 40.3505 159.773 42.0992C158.091 43.8478 155.457 44.7222 151.871 44.7222C146.89 44.7222 143.648 43.0178 142.142 39.6089ZM144.068 34.7281C144.068 39.952 146.702 42.564 151.97 42.564C154.56 42.564 156.663 41.7893 158.279 40.2398C159.895 38.7124 160.703 36.7092 160.703 34.23C160.703 31.9058 159.74 30.135 157.814 28.9175C156.176 27.855 154.107 27.3238 151.605 27.3238C149.613 27.3238 147.853 28.0432 146.326 29.482C144.821 30.9208 144.068 32.6695 144.068 34.7281ZM167.559 24.8003C169.197 24.2248 171.366 23.937 174.066 23.937C179.003 23.937 182.378 25.1545 184.193 27.5894C184.902 28.5191 185.256 29.7033 185.256 31.1421C185.278 31.3413 185.289 31.5406 185.289 31.7398C185.289 33.9533 183.994 36.2001 181.404 38.48C179.036 40.6271 176.114 42.3537 172.639 43.6597C170.337 44.5451 168.433 44.9878 166.928 44.9878C166.308 44.9878 165.777 44.8993 165.334 44.7222V24.0034H165.799C166.308 24.0034 166.718 24.092 167.027 24.2691C167.337 24.424 167.514 24.6011 167.559 24.8003ZM183.031 31.4077C182.832 29.4377 181.736 27.9768 179.744 27.0249C178.261 26.3166 176.402 25.9624 174.166 25.9624L173.568 25.9956C171.466 26.0399 169.65 26.3719 168.123 26.9917V42.8296C169.673 42.8296 171.609 42.2652 173.934 41.1363C177.962 39.1441 180.729 36.8309 182.234 34.1968C182.766 33.2671 183.031 32.3374 183.031 31.4077ZM201.989 37.0855C201.989 35.6688 202.232 34.1636 202.719 32.5699C203.206 30.954 203.926 29.5262 204.878 28.2867C205.829 27.0471 207.003 26.051 208.397 25.2984C209.792 24.5458 211.397 24.1695 213.212 24.1695C213.477 24.1473 213.743 24.1363 214.009 24.1363C216.886 24.1363 219.144 24.9995 220.782 26.7261C222.265 28.2977 223.007 30.3674 223.007 32.9351C223.007 35.4585 222.254 37.7938 220.749 39.9409C220.727 40.0516 220.716 40.2287 220.716 40.4722C220.716 40.6936 220.871 40.926 221.18 41.1695C221.512 41.413 221.911 41.6343 222.376 41.8335C222.863 42.0327 223.272 42.243 223.604 42.4644C223.936 42.6857 224.102 42.896 224.102 43.0952C224.102 43.2723 224.091 43.4162 224.069 43.5269C223.826 43.704 223.494 43.8478 223.073 43.9585C222.652 44.0471 222.365 44.0803 222.21 44.0581C222.077 44.0139 221.889 43.9143 221.645 43.7593C221.402 43.5822 221.169 43.3941 220.948 43.1949C220.35 42.73 219.83 42.4644 219.387 42.398C218.546 43.1949 217.251 43.8811 215.503 44.4566C211.076 45.8511 207.468 45.3752 204.678 43.0288C202.885 41.5015 201.989 39.5204 201.989 37.0855ZM212.149 43.0288C213.477 43.0288 214.418 42.9735 214.971 42.8628C216.167 42.6193 216.997 42.1102 217.462 41.3355L211.385 35.8238C211.363 35.8016 211.352 35.7684 211.352 35.7242V35.5581C211.352 35.1597 211.507 34.9162 211.817 34.8277C212.127 34.717 212.503 34.6617 212.946 34.6617C213.411 34.6617 213.909 34.8387 214.44 35.1929C214.994 35.5471 215.525 35.9676 216.034 36.4546C216.543 36.9195 217.041 37.4064 217.528 37.9156C218.037 38.4247 218.557 38.8342 219.089 39.1441C220.218 37.4175 220.793 35.536 220.815 33.4995C220.837 32.8798 220.848 32.1825 220.848 31.4077C220.738 30.6109 220.55 29.8915 220.284 29.2495C219.753 27.8993 218.413 27.0139 216.266 26.5933C215.226 26.3719 214.241 26.2613 213.311 26.2613C212.382 26.2613 211.828 26.2613 211.651 26.2613C210.279 26.2613 209.017 26.9032 207.866 28.187C206.958 29.2274 206.184 30.6662 205.542 32.5034C204.988 33.9865 204.712 35.3589 204.712 36.6206C204.712 38.9227 205.365 40.5718 206.671 41.5679C207.977 42.5419 209.803 43.0288 212.149 43.0288ZM243.476 44.6558C243.476 45.0542 243.133 45.2534 242.446 45.2534C242.114 45.2534 241.804 45.2092 241.517 45.1206C241.251 45.01 241.085 44.9214 241.019 44.855L241.351 40.605C239.314 42.3537 237.831 43.4494 236.901 43.8921C235.44 44.6226 233.946 44.9878 232.419 44.9878C232.131 44.9878 231.832 44.9768 231.523 44.9546C228.291 44.6005 226.675 42.5308 226.675 38.7456C226.675 37.0191 227.118 34.0861 228.003 29.9468C228.291 28.663 228.479 27.4898 228.567 26.4273C228.634 26.4051 228.778 26.3941 228.999 26.3941C228.999 26.3941 229.132 26.3941 229.398 26.3941C229.508 26.3719 229.608 26.3609 229.696 26.3609C230.405 26.3609 230.759 26.8921 230.759 27.9546C230.759 28.6851 230.615 29.5926 230.327 30.6773C229.442 34.2411 228.999 36.7092 228.999 38.0816C228.999 39.5204 229.375 40.6493 230.128 41.4683C230.615 41.9995 231.379 42.3205 232.419 42.4312C232.552 42.4312 232.685 42.4312 232.817 42.4312C236.426 42.4312 238.794 40.6936 239.923 37.2183C240.587 35.1818 240.974 32.7248 241.085 29.8472C241.151 28.5191 241.207 27.202 241.251 25.896C241.495 25.232 241.827 24.8999 242.247 24.8999C242.668 24.8999 243.133 25.0881 243.642 25.4644C243.708 26.7482 243.741 28.01 243.741 29.2495L243.409 41.9331C243.409 42.8407 243.431 43.7482 243.476 44.6558ZM257.503 24.1031C259.717 24.1031 261.189 24.2469 261.919 24.5347V26.1617C261.322 26.2502 260.503 26.3055 259.462 26.3277C258.422 26.3277 257.315 26.3387 256.142 26.3609C252.866 26.4273 250.63 26.5933 249.435 26.8589C249.059 28.6298 248.882 29.8361 248.904 30.4781C248.926 31.12 248.948 31.618 248.97 31.9722C249.059 32.8355 249.103 33.8537 249.103 35.0269C250.608 35.0269 252.324 34.8941 254.249 34.6284C256.197 34.3628 257.702 34.1747 258.765 34.064C259.827 33.9312 260.923 33.8648 262.052 33.8648V35.6909L249.335 37.2847L249.535 42.73C251.726 42.73 253.962 42.6304 256.242 42.4312C258.544 42.2098 260.281 42.0549 261.454 41.9663C262.65 41.8557 263.911 41.8003 265.24 41.8003C265.24 42.243 265.107 42.6636 264.841 43.062C264.31 43.7704 263.834 43.9807 263.413 43.6929C259.518 44.1135 256.031 44.4455 252.954 44.689C249.9 44.9325 247.841 45.0985 246.779 45.187L246.911 24.0034C247.487 24.1805 248.55 24.2691 250.099 24.2691L257.503 24.1031ZM267.082 42.2984C267.082 41.8778 267.248 41.5126 267.58 41.2027C267.934 40.8706 268.2 40.6493 268.377 40.5386C268.576 40.4058 268.709 40.3062 268.775 40.2398C268.886 42.2541 270.247 43.2613 272.859 43.2613C274.918 43.2613 277.319 42.6193 280.064 41.3355C282.012 40.4501 283.318 39.5425 283.982 38.6128C284.203 38.3251 284.314 38.0926 284.314 37.9156C284.314 37.7163 284.281 37.5614 284.215 37.4507L270.435 34.3628C270.037 34.2743 269.649 34.0861 269.273 33.7984C268.587 33.3114 268.244 32.8687 268.244 32.4702C268.244 30.9429 269.328 29.5594 271.498 28.3199C273.888 26.9696 277.087 25.9514 281.093 25.2652C282.001 25.1102 282.676 25.0217 283.119 24.9995C283.252 25.0438 283.451 25.0881 283.716 25.1324C284.004 25.1545 284.292 25.1988 284.58 25.2652C285.266 25.4201 285.554 25.7079 285.443 26.1284C285.443 26.8811 284.004 27.4787 281.127 27.9214C277.408 28.4748 275.084 28.9396 274.154 29.3159C273.246 29.6923 272.582 30.0796 272.162 30.4781C271.763 30.8765 271.553 31.3524 271.531 31.9058C271.531 32.0165 271.786 32.1382 272.295 32.271C272.804 32.4038 273.412 32.5699 274.121 32.7691C274.829 32.9462 275.748 33.1896 276.877 33.4995C279.621 34.2521 282.986 35.204 286.97 36.355C287.192 36.842 287.302 37.2958 287.302 37.7163C287.302 38.8895 286.616 40.0184 285.244 41.1031C283.694 42.3205 281.547 43.3498 278.802 44.1909C276.522 44.8771 274.707 45.2202 273.357 45.2202C272.228 45.2202 271.155 45.021 270.136 44.6226C269.118 44.2242 268.355 43.8368 267.845 43.4605C267.336 43.0842 267.082 42.6968 267.082 42.2984ZM305.381 28.8843L302.426 28.8179C301.651 28.8179 300.755 28.8954 299.736 29.0503C299.692 29.9136 299.604 31.0314 299.471 32.4038C299.006 37.2736 298.773 40.439 298.773 41.8999C298.773 43.3387 298.796 44.357 298.84 44.9546L295.719 45.187L296.748 28.7847L289.676 28.3863C289.499 28.3863 289.355 28.2424 289.244 27.9546C289.156 27.6669 289.111 27.4012 289.111 27.1577C289.111 26.9143 289.211 26.6486 289.41 26.3609C289.609 26.0731 289.842 25.9292 290.107 25.9292C291.723 25.9956 293.35 26.1063 294.988 26.2613C298.021 26.5269 300.6 26.6597 302.725 26.6597L304.783 26.5933C306.399 26.549 308.004 26.3719 309.598 26.062C309.952 26.1284 310.173 26.6818 310.262 27.7222C310.284 27.9436 310.295 28.1206 310.295 28.2534C308.834 28.674 307.196 28.8843 305.381 28.8843Z" fill="#041434"/>
</svg>
