<svg width="69" height="60" viewBox="0 0 69 60" fill="none" xmlns="http://www.w3.org/2000/svg">
<path d="M1.03191 26.1101C2.88877 18.6545 7.18922 12.0336 13.2485 7.30209C19.3078 2.57045 26.7776 0 34.4683 0C42.1591 0 49.6288 2.57045 55.6882 7.30209C61.7475 12.0336 66.0478 18.6545 67.9047 26.1101H64.8845C59.7896 26.0352 54.7992 27.5563 50.6139 30.4598C50.3723 30.6346 50.1201 30.7942 49.8589 30.9375H49.5065C49.2453 30.7942 48.9931 30.6346 48.7515 30.4598C44.5292 27.6235 39.5564 26.1086 34.4683 26.1086C29.3802 26.1086 24.4074 27.6235 20.1852 30.4598C19.9436 30.6346 19.6914 30.7942 19.4301 30.9375H19.0778C18.8165 30.7942 18.5643 30.6346 18.3227 30.4598C14.1374 27.5563 9.147 26.0352 4.05213 26.1101H1.03191ZM59.4481 41.8747C60.9985 40.6686 62.9201 40.0375 64.8845 40.0895H68.9366V32.0187H64.8845C61.4243 31.9769 58.0434 33.0528 55.2449 35.0861C53.6702 36.2459 51.7651 36.8717 49.8085 36.8717C47.8519 36.8717 45.9469 36.2459 44.3721 35.0861C41.5027 33.0908 38.0903 32.0209 34.5942 32.0209C31.098 32.0209 27.6856 33.0908 24.8162 35.0861C23.2414 36.2459 21.3364 36.8717 19.3798 36.8717C17.4232 36.8717 15.5182 36.2459 13.9434 35.0861C11.1104 33.0267 7.68093 31.9495 4.17798 32.0187H0V40.0895H4.05213C6.01656 40.0375 7.93816 40.6686 9.48854 41.8747C12.3527 43.8715 15.7613 44.9421 19.2539 44.9421C22.7466 44.9421 26.1551 43.8715 29.0193 41.8747C30.5717 40.6723 32.4918 40.0418 34.4557 40.0895C36.4209 40.0332 38.3438 40.6648 39.8921 41.8747C42.7616 43.8703 46.174 44.9398 49.6701 44.9398C53.1663 44.9398 56.5786 43.8703 59.4481 41.8747ZM59.4481 56.3067C60.9985 55.1006 62.9201 54.4695 64.8845 54.5215H68.9366V46.4507H64.8845C61.4243 46.4089 58.0434 47.4848 55.2449 49.5181C53.6702 50.6779 51.7651 51.3037 49.8085 51.3037C47.8519 51.3037 45.9469 50.6779 44.3721 49.5181C41.5027 47.5228 38.0903 46.4532 34.5942 46.4532C31.098 46.4532 27.6856 47.5228 24.8162 49.5181C23.2414 50.6779 21.3364 51.3037 19.3798 51.3037C17.4232 51.3037 15.5182 50.6779 13.9434 49.5181C11.1104 47.4589 7.68093 46.3815 4.17798 46.4507H0V54.5215H4.05213C6.01656 54.4695 7.93816 55.1006 9.48854 56.3067C12.3527 58.3035 15.7613 59.3741 19.2539 59.3741C22.7466 59.3741 26.1551 58.3035 29.0193 56.3067C30.5717 55.1043 32.4918 54.4738 34.4557 54.5215C36.4209 54.4652 38.3438 55.0968 39.8921 56.3067C42.7616 58.3023 46.174 59.3718 49.6701 59.3718C53.1663 59.3718 56.5786 58.3023 59.4481 56.3067Z" fill="#FF7629"/>
<path d="M24.733 22.4096H43.8635V25.0915C43.8635 25.8028 43.5755 26.485 43.063 26.9879C42.5505 27.4909 41.8553 27.7734 41.1305 27.7734H27.4659C26.7411 27.7734 26.046 27.4909 25.5335 26.9879C25.0209 26.485 24.733 25.8028 24.733 25.0915V22.4096Z" stroke="white" stroke-width="2.67978" stroke-linecap="round" stroke-linejoin="round"/>
<path d="M30.1988 9H38.3976C39.8472 9 41.2375 9.56512 42.2625 10.571C43.2876 11.577 43.8635 12.9413 43.8635 14.3638V17.0458H24.733V14.3638C24.733 12.9413 25.3089 11.577 26.3339 10.571C27.359 9.56512 28.7492 9 30.1988 9Z" stroke="white" stroke-width="2.67978" stroke-linecap="round" stroke-linejoin="round"/>
<path d="M43.8634 17.0457H24.7329C23.2236 17.0457 22 18.2465 22 19.7277C22 21.2089 23.2236 22.4096 24.7329 22.4096H43.8634C45.3727 22.4096 46.5963 21.2089 46.5963 19.7277C46.5963 18.2465 45.3727 17.0457 43.8634 17.0457Z" stroke="white" stroke-width="2.67978" stroke-linecap="round" stroke-linejoin="round"/>
</svg>
